<?xml version="1.0" encoding="UTF-8"?>
<svg version="1.1" xmlns="http://www.w3.org/2000/svg" width="256" height="256">
<path d="M0 0 C0.88409261 -0.00623996 1.76818521 -0.01247993 2.67906851 -0.01890898 C5.6177393 -0.0347614 8.55557167 -0.02226527 11.49424744 -0.00964355 C13.61065146 -0.01506807 15.7270517 -0.02219258 17.84344482 -0.03088379 C23.57476584 -0.04907955 29.30579802 -0.04206525 35.03712392 -0.02936745 C41.04183671 -0.01922176 47.04652522 -0.02863737 53.05123901 -0.03491211 C63.13287281 -0.04218336 73.21438928 -0.03261385 83.29600525 -0.0135498 C94.94486897 0.00822374 106.59345268 0.00116182 118.24230963 -0.02085543 C128.2527487 -0.03901718 138.26310356 -0.0415641 148.27355379 -0.03110075 C154.24850741 -0.02487089 160.22332949 -0.02401649 166.19827461 -0.0372467 C171.81512095 -0.04881596 177.43160677 -0.04075944 183.04841423 -0.01766968 C185.10751624 -0.01238865 187.16664869 -0.01388596 189.22573853 -0.02272034 C192.04079208 -0.03368305 194.85469697 -0.01990337 197.66967773 0 C198.48068076 -0.00892289 199.29168378 -0.01784577 200.12726265 -0.02703905 C207.97461281 0.08027156 214.01095922 3.22757906 219.77134705 8.50793457 C224.96998709 14.16527815 227.14116865 19.71513589 227.16575623 27.31867981 C227.17184733 27.96688995 227.17793843 28.61510009 227.18421412 29.28295296 C227.20074251 31.43535943 227.19608321 33.58716769 227.19126892 35.73962402 C227.19861528 37.29092009 227.20720316 38.84221071 227.2169342 40.39349365 C227.23910141 44.59407849 227.24208323 48.79446687 227.24018669 52.99510217 C227.24006675 56.50878255 227.24864077 60.02242169 227.25696421 63.53609055 C227.27618172 71.83036294 227.27908842 80.12453469 227.27232361 88.41882324 C227.26568662 96.95824737 227.28853705 105.49723915 227.32563734 114.03657562 C227.35638931 121.38290966 227.36768835 128.72910502 227.36380053 136.0755021 C227.36173839 140.45661367 227.36712883 144.83738883 227.39169312 149.2184391 C227.41404842 153.34155201 227.41201028 157.46396505 227.39176559 161.58708191 C227.38837078 163.09385923 227.39337833 164.60068447 227.40774918 166.10739708 C227.48640282 174.97064698 226.7378377 181.91837963 221.77134705 189.50793457 C221.11134705 189.50793457 220.45134705 189.50793457 219.77134705 189.50793457 C219.44134705 190.49793457 219.11134705 191.48793457 218.77134705 192.50793457 C218.11134705 192.50793457 217.45134705 192.50793457 216.77134705 192.50793457 C216.44134705 193.49793457 216.11134705 194.48793457 215.77134705 195.50793457 C210.48585067 199.49388118 204.98082841 200.08973826 198.56924438 200.03605652 C197.67587224 200.04441318 196.7825001 200.05276984 195.86205608 200.06137973 C192.88587169 200.08425229 189.9104454 200.07875579 186.93418884 200.07312012 C184.79324012 200.08345786 182.65229883 200.09544808 180.5113678 200.10896301 C174.70751053 200.13997615 168.90390172 200.14528802 163.09997153 200.14403129 C158.24922282 200.14486264 153.39852777 200.15711189 148.54779559 200.1689809 C137.10022439 200.19634423 125.65278193 200.2016866 114.20518494 200.19421387 C102.40913324 200.18697395 90.61367934 200.22038547 78.81775731 200.27327126 C68.67819663 200.31708458 58.53882887 200.33376501 48.39917499 200.32923537 C42.34851273 200.32691593 36.29833355 200.33517977 30.24776268 200.37030602 C24.55521713 200.40232015 18.8636598 200.40040574 13.17110062 200.37286186 C11.08744278 200.36841612 9.00371922 200.37580932 6.92015648 200.3962059 C-13.97353357 200.58681006 -13.97353357 200.58681006 -22.22865295 192.50793457 C-26.82619554 186.77289955 -29.34914014 182.55413772 -29.37582397 175.17111206 C-29.37950066 174.51351225 -29.38317735 173.85591245 -29.38696545 173.17838538 C-29.39801967 170.96449683 -29.4018491 168.7506552 -29.40565491 166.53674316 C-29.4119184 164.95338796 -29.4185651 163.37003424 -29.42556763 161.78668213 C-29.44299144 157.47648864 -29.45353382 153.16630625 -29.46177316 148.85608625 C-29.46692194 146.16278993 -29.47299782 143.46949705 -29.47928429 140.77620316 C-29.49834292 132.34855093 -29.51257085 123.92090749 -29.52089626 115.49323785 C-29.53066266 105.76732791 -29.5569637 96.04164592 -29.59739715 86.31581628 C-29.62757694 78.7980891 -29.64236702 71.28042717 -29.64567727 63.7626406 C-29.64802624 59.27311894 -29.65696623 54.78384062 -29.68213844 50.294384 C-29.7054559 46.06721864 -29.70963774 41.84045616 -29.69937706 37.6132431 C-29.69888243 36.06530796 -29.70518146 34.51735275 -29.71893311 32.96947861 C-29.79727362 23.62533727 -29.326384 17.05133716 -23.6231842 9.33605957 C-23.10111389 8.81527832 -22.57904358 8.29449707 -22.04115295 7.75793457 C-21.53197327 7.22684082 -21.02279358 6.69574707 -20.4981842 6.14855957 C-14.07797091 1.50744153 -7.81445263 -0.08621398 0 0 Z " fill="#1E3050" transform="translate(29.228652954101563,27.4920654296875)"/>
<path d="M0 0 C0.88409261 -0.00623996 1.76818521 -0.01247993 2.67906851 -0.01890898 C5.6177393 -0.0347614 8.55557167 -0.02226527 11.49424744 -0.00964355 C13.61065146 -0.01506807 15.7270517 -0.02219258 17.84344482 -0.03088379 C23.57476584 -0.04907955 29.30579802 -0.04206525 35.03712392 -0.02936745 C41.04183671 -0.01922176 47.04652522 -0.02863737 53.05123901 -0.03491211 C63.13287281 -0.04218336 73.21438928 -0.03261385 83.29600525 -0.0135498 C94.94486897 0.00822374 106.59345268 0.00116182 118.24230963 -0.02085543 C128.2527487 -0.03901718 138.26310356 -0.0415641 148.27355379 -0.03110075 C154.24850741 -0.02487089 160.22332949 -0.02401649 166.19827461 -0.0372467 C171.81512095 -0.04881596 177.43160677 -0.04075944 183.04841423 -0.01766968 C185.10751624 -0.01238865 187.16664869 -0.01388596 189.22573853 -0.02272034 C192.04079208 -0.03368305 194.85469697 -0.01990337 197.66967773 0 C198.48068076 -0.00892289 199.29168378 -0.01784577 200.12726265 -0.02703905 C207.97461281 0.08027156 214.01095922 3.22757906 219.77134705 8.50793457 C229.51955961 19.11628353 226.77134705 28.31273841 226.77134705 43.50793457 C142.29134705 43.50793457 57.81134705 43.50793457 -29.22865295 43.50793457 C-29.22865295 16.91912678 -29.22865295 16.91912678 -23.6231842 9.33605957 C-23.10111389 8.81527832 -22.57904358 8.29449707 -22.04115295 7.75793457 C-21.53197327 7.22684082 -21.02279358 6.69574707 -20.4981842 6.14855957 C-14.07797091 1.50744153 -7.81445263 -0.08621398 0 0 Z " fill="#203252" transform="translate(29.228652954101563,27.4920654296875)"/>
<path d="M0 0 C0.73381897 -0.00807175 1.46763794 -0.01614349 2.22369385 -0.02445984 C3.77703504 -0.03828074 5.33040634 -0.04901181 6.88378906 -0.05688477 C8.46460939 -0.0683893 10.04539134 -0.08881719 11.62597656 -0.1184082 C13.91758452 -0.16129798 16.20803938 -0.1772834 18.5 -0.1875 C19.5472525 -0.21376213 19.5472525 -0.21376213 20.61566162 -0.24055481 C26.79796446 -0.21357955 30.69748343 1.88982994 35.390625 5.80078125 C37.69827793 8.74944888 37.64576205 11.69335435 37.66088867 15.27294922 C37.66726852 16.29766327 37.67364838 17.32237732 37.68022156 18.37814331 C37.68133438 19.48441071 37.6824472 20.5906781 37.68359375 21.73046875 C37.68858635 23.43760544 37.68858635 23.43760544 37.69367981 25.17922974 C37.69874572 27.58839514 37.70108824 29.99756756 37.70092773 32.40673828 C37.70311214 36.09158916 37.72126597 39.7761397 37.74023438 43.4609375 C37.74316877 45.80078023 37.74515326 48.14062437 37.74609375 50.48046875 C37.75327927 51.58268768 37.76046478 52.68490662 37.76786804 53.82052612 C37.76479141 54.85154449 37.76171478 55.88256287 37.75854492 56.94482422 C37.75996994 57.84844696 37.76139496 58.7520697 37.76286316 59.68307495 C37.48975638 62.50563348 36.68307911 64.66684694 35.515625 67.23828125 C34.855625 67.23828125 34.195625 67.23828125 33.515625 67.23828125 C33.515625 67.89828125 33.515625 68.55828125 33.515625 69.23828125 C28.36251683 71.77888342 24.16126843 72.68606513 18.38671875 72.63671875 C17.63399185 72.63958893 16.88126495 72.64245911 16.10572815 72.64541626 C14.52498618 72.64744526 12.94421842 72.64199742 11.36352539 72.62939453 C8.95596845 72.61330026 6.55008411 72.6292933 4.14257812 72.6484375 C2.59895466 72.6464553 1.05533223 72.6426121 -0.48828125 72.63671875 C-1.20093643 72.64279144 -1.91359161 72.64886414 -2.64784241 72.65512085 C-8.07775728 72.57935065 -11.97090762 71.21314847 -16.234375 67.86328125 C-18.99216245 64.27815757 -19.735213 60.61728362 -19.7590332 56.17602539 C-19.76856522 55.1947316 -19.77809723 54.21343781 -19.78791809 53.20240784 C-19.78700668 52.15334763 -19.78609528 51.10428741 -19.78515625 50.0234375 C-19.78944138 48.93494003 -19.7937265 47.84644257 -19.79814148 46.72496033 C-19.80387691 44.42610367 -19.80439085 42.12722886 -19.80004883 39.82836914 C-19.79688951 36.31690427 -19.82035656 32.80628261 -19.84570312 29.29492188 C-19.84797629 27.05859481 -19.84867953 24.82226549 -19.84765625 22.5859375 C-19.856866 21.53890152 -19.86607574 20.49186554 -19.87556458 19.4131012 C-19.8410731 13.96180309 -19.66497686 9.89094345 -16.484375 5.23828125 C-10.98139938 0.99640421 -6.77847326 0.07089705 0 0 Z " fill="#FEFEFE" transform="translate(118.484375,112.76171875)"/>
<path d="M0 0 C84.48 0 168.96 0 256 0 C256 4.62 256 9.24 256 14 C171.52 14 87.04 14 0 14 C0 9.38 0 4.76 0 0 Z " fill="#FFFFFF" transform="translate(0,71)"/>
<path d="M0 0 C0.9897583 0.02094727 1.9795166 0.04189453 2.99926758 0.06347656 C4.07241211 0.07636719 5.14555664 0.08925781 6.2512207 0.10253906 C7.37077148 0.13605469 8.49032227 0.16957031 9.64379883 0.20410156 C10.77495117 0.22214844 11.90610352 0.24019531 13.0715332 0.25878906 C15.86730258 0.30597504 18.66137855 0.37179561 21.45629883 0.45410156 C21.98056339 5.90386401 22.26018016 11.02115861 21.45629883 16.45410156 C19.38844404 18.84275562 17.5273095 19.85432688 14.72583008 21.27050781 C11.98478915 22.70000076 10.40179567 24.40533389 9.04614258 27.20410156 C7.39932771 33.48599138 7.00250837 41.48498578 9.89379883 47.45410156 C12.42042483 50.41210274 13.85295255 51.19644541 17.20629883 52.89160156 C19.59301758 54.30175781 19.59301758 54.30175781 21.45629883 56.45410156 C22.26018016 61.88704452 21.98056339 67.00433911 21.45629883 72.45410156 C-0.06071964 74.24948821 -0.06071964 74.24948821 -5.59057617 70.25097656 C-7.37740779 67.35725811 -8.52310516 64.69185443 -9.54370117 61.45410156 C-10.14182617 60.27847656 -10.73995117 59.10285156 -11.35620117 57.89160156 C-16.87921426 41.90393209 -15.9184509 25.14388459 -8.54370117 9.95410156 C-3.75178768 0.66976918 -3.75178768 0.66976918 0 0 Z " fill="#FEFEFE" transform="translate(49.543701171875,112.5458984375)"/>
<path d="M0 0 C20.45128585 -1.62252359 20.45128585 -1.62252359 25.9453125 1.875 C27.79589252 4.53054084 28.92417768 6.95114446 30 10 C30.60908203 11.32644531 30.60908203 11.32644531 31.23046875 12.6796875 C34.63717549 20.33024394 35.18132113 27.53899056 35.1875 35.8125 C35.19974609 36.66392578 35.21199219 37.51535156 35.22460938 38.39257812 C35.24493259 47.28737306 33.60497553 54.49553426 29.5 62.375 C29.19191406 62.97699219 28.88382813 63.57898438 28.56640625 64.19921875 C27.16573425 66.91039073 25.69461785 69.45807322 24 72 C21.56982422 72.34057617 21.56982422 72.34057617 18.5546875 72.29296875 C17.47832031 72.28330078 16.40195313 72.27363281 15.29296875 72.26367188 C14.16503906 72.23853516 13.03710938 72.21339844 11.875 72.1875 C10.73933594 72.17396484 9.60367188 72.16042969 8.43359375 72.14648438 C5.62192613 72.11104319 2.81119583 72.06163517 0 72 C-0.13494246 69.3941111 -0.23402299 66.79517889 -0.3125 64.1875 C-0.35439453 63.44951172 -0.39628906 62.71152344 -0.43945312 61.95117188 C-0.48828125 59.79296875 -0.48828125 59.79296875 0 56 C2.41790412 53.96864499 3.82425946 53 7 53 C7.33 52.01 7.66 51.02 8 50 C8.66 50 9.32 50 10 50 C13.09906149 42.36302704 14.88041928 34.69636325 11.5625 26.8125 C9.70124614 23.3810247 7.54541635 22.0083876 4.25 20 C1.79500274 18.29235051 0.24621405 17.1245834 -0.40869141 14.13330078 C-0.79432165 9.39602337 -0.45907777 4.72113316 0 0 Z " fill="#FEFEFE" transform="translate(185,113)"/>
</svg>
